<?xml version="1.0" encoding="UTF-8"?>
<!DOCTYPE svg PUBLIC "-//W3C//DTD SVG 1.1//EN" "http://www.w3.org/Graphics/SVG/1.1/DTD/svg11.dtd">
<!-- Creator: CorelDRAW 2019 (64-Bit) -->
<svg xmlns="http://www.w3.org/2000/svg" xml:space="preserve" width="98.6787mm" height="98.679mm" version="1.1" style="shape-rendering:geometricPrecision; text-rendering:geometricPrecision; image-rendering:optimizeQuality; fill-rule:evenodd; clip-rule:evenodd"
viewBox="0 0 484.3 484.31"
 xmlns:xlink="http://www.w3.org/1999/xlink"
 xmlns:xodm="http://www.corel.com/coreldraw/odm/2003">
 <defs>
  <style type="text/css">
   <![CDATA[
    .fil3 {fill:black;fill-rule:nonzero}
    .fil1 {fill:#92B4EA;fill-rule:nonzero}
    .fil4 {fill:#A2C5F9;fill-rule:nonzero}
    .fil5 {fill:#E6F4FF;fill-rule:nonzero}
    .fil0 {fill:#E8E1EF;fill-rule:nonzero}
    .fil2 {fill:#F48462;fill-rule:nonzero}
   ]]>
  </style>
 </defs>
 <g id="Слой_x0020_1">
  <metadata id="CorelCorpID_0Corel-Layer"/>
  <g id="_2840709141904">
   <path class="fil0" d="M484.3 242.15c0,46.23 -12.99,89.44 -35.42,126.22 -3.9,6.39 -8.1,12.52 -12.52,18.49 -3.27,4.36 -6.64,8.57 -10.23,12.67 -9.3,10.91 -19.59,20.93 -30.65,30.07 -3.64,2.96 -7.38,5.87 -11.22,8.62 -2.08,1.56 -4.21,3.06 -6.39,4.52 -3.74,2.49 -7.53,4.93 -11.43,7.22 -0.73,0.52 -1.51,0.93 -2.29,1.4 -0.78,0.47 -1.61,0.93 -2.44,1.4 -7.69,4.42 -15.74,8.36 -23.94,11.9 -17.3,7.48 -35.68,12.93 -54.8,16.15 -2.13,0.42 -4.21,0.73 -6.34,1.04 -5.4,0.78 -10.86,1.35 -16.36,1.77 -0.57,0.05 -1.15,0.1 -1.72,0.1 -3.79,0.26 -7.69,0.42 -11.58,0.47 -1.61,0.1 -3.22,0.1 -4.83,0.1 -19.53,0 -38.59,-2.34 -56.77,-6.7 -14.8,-3.53 -29.04,-8.47 -42.64,-14.7 -10.8,-4.78 -21.19,-10.44 -31.11,-16.78 -3.69,-2.34 -7.33,-4.83 -10.91,-7.43 -4.21,-3.01 -8.31,-6.18 -12.31,-9.56 -10.44,-8.52 -20.15,-17.97 -29.03,-28.2 -1.97,-2.29 -3.9,-4.57 -5.76,-6.91 -2.03,-2.49 -4,-5.04 -5.92,-7.64 -0.83,-1.09 -1.61,-2.13 -2.39,-3.22 -6.39,-8.88 -12.15,-18.23 -17.3,-28 -2.08,-3.84 -4,-7.79 -5.82,-11.74 -14.28,-30.85 -22.18,-65.19 -22.18,-101.29 0,-133.75 108.4,-242.15 242.15,-242.15 133.75,0 242.15,108.4 242.15,242.15z"/>
   <path class="fil1" d="M384.27 438.23c-2.08,1.56 -4.21,3.06 -6.39,4.52 -4.47,3.01 -9.04,5.92 -13.71,8.62 -26.39,15.43 -55.94,25.97 -87.52,30.49 -1.51,0.21 -3.01,0.42 -4.57,0.57 -8.05,1.04 -16.26,1.61 -24.62,1.77l-0.47 0c-1.61,0.1 -3.22,0.1 -4.83,0.1 -19.53,0 -38.59,-2.34 -56.77,-6.7 -26.54,-6.39 -51.42,-17.14 -73.76,-31.48 -8.1,-5.14 -15.84,-10.8 -23.22,-16.99 -10.44,-8.52 -20.15,-17.97 -29.03,-28.2 -1.97,-2.29 -3.9,-4.57 -5.76,-6.91 -3.06,-41.5 35.99,-81.5 42.95,-89.65 22.39,-26.49 85.34,-41.24 147.15,-39.48 0,0 84.2,-0.31 119.26,37.14 15.42,16.47 20.57,75.16 21.3,136.19z"/>
   <path class="fil1" d="M103.89 297.25l-3.17 141.46c-4.21,-3.01 -8.31,-6.19 -12.31,-9.56 -10.44,-8.52 -20.15,-17.97 -29.04,-28.21 -1.97,-2.29 -3.9,-4.57 -5.76,-6.9 -2.03,-2.49 -4,-5.04 -5.92,-7.64 -0.83,-1.09 -1.61,-2.13 -2.39,-3.22 -6.39,-8.88 -12.15,-18.23 -17.29,-27.99 30.93,-29.65 75.89,-57.94 75.89,-57.94z"/>
   <path class="fil1" d="M426.13 399.54c-9.3,10.91 -19.59,20.93 -30.65,30.07 -3.64,2.96 -7.38,5.87 -11.22,8.62 -2.08,1.56 -4.21,3.06 -6.39,4.52 -0.99,0.67 -2.02,1.35 -3.01,1.97 -1.25,0.83 -2.49,1.66 -3.74,2.39 -2.29,1.51 -4.62,2.91 -6.96,4.26 -8.46,4.99 -17.3,9.4 -26.39,13.3l-30.07 -24.78 57.34 -135.52 61.09 95.16z"/>
   <path class="fil2" d="M197.55 221.09l-3.94 48.59c0,0 3.31,14.74 35.1,19.93 23.68,3.88 36.6,-10.42 36.6,-10.42l-0.4 -10.49 -1.08 -27.28 -56.75 -17.4 -9.52 -2.93z"/>
   <path class="fil3" d="M207.07 224.02c0.02,1.51 0.44,3.32 1.16,5.41 10.02,28.31 43.01,36.92 56.68,39.27l-1.08 -27.28 -56.75 -17.4z"/>
   <path class="fil2" d="M286.14 117.73c0,0 23.14,70.91 8.73,108.1 -14.41,37.19 -48.65,27.8 -68.77,18.4 -20.12,-9.41 -28.56,-23.12 -28.56,-23.12 0,0 -20.1,4.72 -31.37,-14.64 -11.27,-19.36 -1.24,-39.37 10.34,-43.05 11.57,-3.69 24.01,5.61 24.01,5.61l-8.45 -20.77c0,0 53.3,-96.26 94.06,-30.51z"/>
   <path class="fil3" d="M274.86 204.3c-0.34,0 -0.69,-0.07 -1.02,-0.21 -1.32,-0.56 -1.93,-2.09 -1.37,-3.41 5.07,-11.89 -2.78,-26.24 -2.86,-26.39 -0.7,-1.25 -0.25,-2.83 1,-3.53 1.25,-0.7 2.83,-0.25 3.53,1 0.38,0.68 9.19,16.7 3.11,30.96 -0.42,0.99 -1.38,1.58 -2.39,1.58z"/>
   <path class="fil3" d="M194.56 200.51c-0.62,0 -1.24,-0.28 -1.64,-0.81l-16.44 -21.48c-0.69,-0.91 -0.52,-2.21 0.38,-2.9 0.91,-0.71 2.2,-0.52 2.9,0.38l16.44 21.48c0.69,0.91 0.52,2.21 -0.39,2.9 -0.37,0.29 -0.82,0.43 -1.25,0.43z"/>
   <path class="fil3" d="M175.55 193.24c-1.1,0 -2.01,-0.86 -2.06,-1.97 -0.06,-1.14 0.83,-2.11 1.96,-2.17l12.98 -0.61c1.2,-0.12 2.11,0.83 2.16,1.97 0.05,1.14 -0.83,2.11 -1.97,2.16l-12.98 0.61c-0.03,0 -0.07,0 -0.1,0z"/>
   <path class="fil3" d="M246.68 175.75c-1.41,0 -2.56,-1.13 -2.6,-2.54l-0.3 -12.83c-0.03,-1.43 1.1,-2.62 2.54,-2.66 1.43,-0.05 2.62,1.11 2.66,2.54l0.3 12.84c0.04,1.43 -1.1,2.62 -2.54,2.66 -0.02,0 -0.04,0 -0.06,0z"/>
   <path class="fil3" d="M284.6 176.63c-1.38,0 -2.53,-1.09 -2.59,-2.49l-0.55 -12.83c-0.06,-1.43 1.05,-2.64 2.48,-2.7 1.44,-0.1 2.65,1.05 2.71,2.48l0.55 12.83c0.06,1.43 -1.05,2.65 -2.48,2.71 -0.04,0 -0.08,0 -0.11,0z"/>
   <path class="fil3" d="M240.41 151.67c-0.51,0 -1.02,-0.15 -1.48,-0.46 -1.18,-0.82 -1.48,-2.43 -0.66,-3.61 5.95,-8.58 17.25,-4.65 17.73,-4.48 1.35,0.48 2.05,1.96 1.57,3.31 -0.48,1.35 -1.95,2.05 -3.31,1.58 -0.33,-0.12 -8.05,-2.75 -11.72,2.55 -0.51,0.73 -1.31,1.12 -2.14,1.12z"/>
   <path class="fil3" d="M289.95 151.61c-0.87,0 -1.72,-0.44 -2.21,-1.23 -0.58,-0.92 -2.59,-3.42 -4.99,-3.91 -1.32,-0.25 -2.63,0.09 -4.04,1.09 -1.17,0.82 -2.8,0.54 -3.62,-0.62 -0.83,-1.17 -0.54,-2.79 0.63,-3.62 2.58,-1.82 5.38,-2.48 8.11,-1.92 5.01,1.04 8.01,5.74 8.34,6.27 0.75,1.23 0.36,2.83 -0.86,3.57 -0.42,0.26 -0.89,0.38 -1.35,0.38z"/>
   <path class="fil3" d="M286.14 117.74l-4.38 -6.4c0,0 -5.38,3.69 -17.37,6.22 -18.4,3.99 -40.02,2.86 -40.02,2.86 0,0 3.63,5.28 2.79,24.25 -0.83,19.03 -20.57,29.63 -20.57,29.63 -6.94,-4.88 -12.8,-7.66 -17.72,-9.13 -2.13,-0.6 -4.02,-0.99 -5.78,-1.2 -11.39,-1.12 -15.63,5.91 -15.63,5.91 0,0 -26.21,-41.77 4.11,-71.78 21.26,-20.95 49.72,-19.61 64.81,-16.91 5.13,0.94 8.68,2.01 9.99,2.42 0.35,0.1 0.53,0.15 0.53,0.15 0,0 45.39,-10.77 52.94,-4.04 7.55,6.67 -8.26,38.3 -13.71,38.02z"/>
   <path class="fil3" d="M253.4 213.66c-0.02,0.65 0.05,1.33 0.29,1.93 0.4,0.98 1.22,1.72 2.52,2.24 2.3,0.95 4.54,0.85 6.37,0.39l-9.18 -4.57zm6.48 10.09c-1.77,0 -3.68,-0.31 -5.64,-1.11 -2.61,-1.07 -4.47,-2.85 -5.38,-5.16 -1.6,-4.05 0.19,-8.22 0.4,-8.68 0.29,-0.64 0.83,-1.14 1.5,-1.37 0.66,-0.24 1.39,-0.2 2.02,0.12l16.95 8.43c0.8,0.4 1.34,1.18 1.43,2.08 0.09,0.9 -0.3,1.77 -1.01,2.32 -0.23,0.18 -4.55,3.38 -10.26,3.38z"/>
   <path class="fil4" d="M272.07 482.44c-8.05,1.04 -16.26,1.61 -24.62,1.77l-18.02 -192.24 17.71 4.62 24.93 185.85z"/>
   <path class="fil5" d="M266.08 267.17c0,0 20.63,57.36 14.61,56.51 -6.02,-0.85 -43.1,-30.36 -43.1,-30.36 0,0 -24.28,33.39 -32.74,34.01 -8.47,0.62 -11.24,-59.75 -11.24,-59.75 0,0 6.41,17.07 38.02,19.96 31.61,2.89 34.45,-20.37 34.45,-20.37z"/>
   <path class="fil5" d="M366.45 449.97c-0.73,0.52 -1.51,0.93 -2.29,1.4 -0.78,0.47 -1.61,0.93 -2.44,1.4l-20.72 -97.08c-0.26,-1.4 0.62,-2.75 2.02,-3.06 1.4,-0.31 2.75,0.57 3.07,1.97l20.36 95.37z"/>
  </g>
 </g>
</svg>
